<?xml version="1.0" encoding="UTF-8" standalone="no"?>
<svg
   xmlns:dc="http://purl.org/dc/elements/1.1/"
   xmlns:cc="http://creativecommons.org/ns#"
   xmlns:rdf="http://www.w3.org/1999/02/22-rdf-syntax-ns#"
   xmlns:svg="http://www.w3.org/2000/svg"
   xmlns="http://www.w3.org/2000/svg"
   xmlns:sodipodi="http://sodipodi.sourceforge.net/DTD/sodipodi-0.dtd"
   xmlns:inkscape="http://www.inkscape.org/namespaces/inkscape"
   version="1.0"
   width="60.000000pt"
   height="60.000000pt"
   viewBox="0 0 60.000000 60.000000"
   preserveAspectRatio="xMidYMid meet"
   id="svg953"
   sodipodi:docname="monster.svg"
   inkscape:version="1.0.2-2 (e86c870879, 2021-01-15)">
  <defs
     id="defs957" />
  <sodipodi:namedview
     pagecolor="#ffffff"
     bordercolor="#666666"
     borderopacity="1"
     objecttolerance="10"
     gridtolerance="10"
     guidetolerance="10"
     inkscape:pageopacity="0"
     inkscape:pageshadow="2"
     inkscape:window-width="1366"
     inkscape:window-height="745"
     id="namedview955"
     showgrid="false"
     inkscape:zoom="4"
     inkscape:cx="39.282197"
     inkscape:cy="33.567308"
     inkscape:window-x="-8"
     inkscape:window-y="-8"
     inkscape:window-maximized="1"
     inkscape:current-layer="svg953"
     inkscape:document-rotation="0" />
  <metadata
     id="metadata943">
Created by potrace 1.16, written by Peter Selinger 2001-2019
<rdf:RDF>
  <cc:Work
     rdf:about="">
    <dc:format>image/svg+xml</dc:format>
    <dc:type
       rdf:resource="http://purl.org/dc/dcmitype/StillImage" />
  </cc:Work>
</rdf:RDF>
</metadata>
  <g
     transform="translate(0.000000,60.000000) scale(0.002788,-0.002500)"
     fill="#000000"
     stroke="none"
     id="g951">
    <path
       d="M18455 23978 c-859 -239 -1554 -502 -2320 -877 -1633 -800 -3117 -1919 -4528 -3413 l-149 -157 16 -158 c98 -956 461 -1794 1122 -2588 139 -166 461 -489 632 -633 803 -675 1720 -1093 2670 -1217 172 -22 528 -45 712 -45 593 0 1210 122 1803 356 300 118 712 336 992 524 795 533 1415 1262 1755 2060 123 289 239 683 289 985 88 526 86 1083 -5 1620 -88 512 -224 926 -458 1390 -244 483 -487 818 -875 1205 -376 375 -745 651 -1210 905 l-120 65 -128 -1 c-93 -1 -147 -7 -198 -21z m243 -1018 c425 -259 799 -592 1073 -955 316 -419 580 -973 704 -1475 74 -303 105 -561 105 -880 0 -332 -31 -579 -116 -921 -79 -320 -162 -548 -299 -819 -515 -1015 -1521 -1762 -2690 -1995 -383 -77 -693 -97 -1107 -72 -329 20 -464 36 -697 83 -429 87 -853 245 -1236 462 -143 81 -417 267 -555 378 -262 209 -592 562 -783 836 -315 452 -541 990 -632 1502 l-18 100 304 300 c320 317 534 516 814 757 206 177 405 342 405 335 0 -2 -16 -61 -35 -131 -90 -328 -129 -619 -129 -960 0 -260 15 -419 61 -645 176 -873 723 -1607 1397 -1875 174 -68 391 -101 557 -84 523 53 893 478 1040 1193 78 379 92 1011 33 1486 -120 972 -605 1806 -1229 2115 l-77 38 94 54 c815 479 1710 881 2533 1136 204 63 346 105 359 106 5 1 61 -30 124 -69z"
       id="path945" />
    <path
       d="m 2014,22179 c -413,-273 -588,-411 -843,-662 -475,-470 -760,-924 -981,-1562 -75,-218 -128,-447 -167,-715 -26,-183 -26,-737 0,-935 69,-521 199,-954 432,-1430 374,-764 947,-1404 1630,-1818 274,-167 551,-289 880,-391 473,-145 753,-189 1210,-189 484,0 905,69 1380,228 1301,434 2332,1403 2723,2560 46,136 107,373 117,455 4,30 15,94 26,142 10,48 19,94 19,102 0,19 -314,489 -445,666 -1020,1373 -2306,2378 -3815,2980 -517,206 -1265.992,555.384 -1779.992,641.384 L 2350,22223 l 72.5066,-60.937 c -36,69.999 67.5476,73.735 -22.4986,89.321 C 2365.207,22257.408 2156,22273 2014,22179 Z m 417,-1043 c 898,-160 1733,-480 2539,-974 85,-52 157,-96 159,-98 2,-2 -9,-14 -25,-26 -89,-68 -317,-312 -454,-483 -483,-609 -668,-1376 -469,-1956 83,-244 245,-424 432,-481 95,-29 232,-22 332,16 270,103 546,416 772,876 247,502 357,848 379,1199 l 7,111 61,-53 c 98,-84 422,-411 547,-552 234,-263 454,-542 644,-815 100,-144 97,-118 33,-318 -153,-480 -396,-879 -753,-1237 -796,-796 -1992,-1132 -3081,-865 -164,41 -503,148 -644,205 -721,290 -1324,855 -1675,1570 -157,320 -247,611 -302,980 -25,171 -25,629 0,800 40,267 90,455 199,745 153,406 329,692 602,977 158,165 449,412 487,413 9,0 103,-16 210,-34 z"
       id="path947"
       sodipodi:nodetypes="ccccccccsccccscccccscccscccccccccccccccccccccc" />
    <path
       d="m 10020,13510 c -2559,-93 -4703,-539 -6585,-1371 -238,-105 -787,-378 -1005,-500 -450,-251 -903,-543 -1298,-836 l -112,-83 v 0 c -802.20696,-1101.875 1422.5564,675.869 137.7448,56.375 C 720.68353,10565.638 634,9901 670,9700 1189,6859 2408,4543 4265,2865 5758,1517 7706,578 9960,119 c 461,-94 565,-108 833,-115 349,-9 795,11 1172,52 2349,254 4418,1400 5990,3319 1374,1676 2272,3875 2505,6135 69,670 78,1415 24,2055 -21,250 -193.302,496.125 -202.302,504.125 -8,8 -497.698,279.875 -941.698,381.875 -2461,565 -4736,906 -6830,1024 -151,8 -376,20 -500,26 -290,13 -1684,20 -1990,9 z m -910,-1208 c 0,-5 -12,-19 -26,-33 -43,-40 -214,-256 -316,-400 C 8225,11104 7622,9837 7075,8310 6853,7691 6608,6910 6504,6495 c -13,-55 -27,-107 -30,-115 -7,-19 31.9981,248.8408 -117.0019,545.8408 -149,297 -339.1094,44.9611 -610.1094,680.9611 C 5432.8887,8344.8019 5335,8857 5154,9220 c -357,715 -714,1267 -1142,1763 -52,60 -92,111 -89,113 9,9 701,295 912,377 1505,583 2634,809 4183,835 50,1 92,-2 92,-6 z m 5090,-72 c 1146,-48 2123,-246 3600,-732 135,-44 247,-82 249,-84 3,-3 -6,-19 -20,-37 -408,-548 -763,-1202 -1062,-1957 -129,-326 -199,-524 -447,-1270 -232,-698 -316,-941 -421,-1203 -92,-229 -191,-449 -199,-440 -4,4 -37,94 -75,198 -299,842 -822,2023 -1290,2915 -590,1127 -1120,1922 -1634,2452 -119,123 -122,128 -92,128 17,0 97,5 178,11 381,27 836,34 1213,19 z M 12057,5625 c 1413,-1961 1921,-2550 2821,-3268 94,-76 172,-140 172,-142 0,-10 -451,-210 -685,-305 -921,-372 -1736,-573 -2685,-662 -214,-20 -989,-17 -1215,5 -217,21 -547,68 -728,103 -161,31 -507,114 -507,121 0,11 273,529 373,708 181,325 332,576 849,1415 552,895 856,1449 1215,2215 41,88 79,171 84,184 10,24 10,24 28,5 10,-10 135,-181 278,-379 z"
       id="path949"
       sodipodi:nodetypes="ccccccscccccccccccccscccccsccccccsccsccccccccsccccsccccscccccc" />
  </g>
  <path
     style="fill:#ffffff;stroke:#000000;stroke-width:0.75px;stroke-linecap:butt;stroke-linejoin:miter;stroke-opacity:1;fill-opacity:1"
     d="M 3.7911536,17.507474 3.487336,17.070098 3.2050173,16.50519 2.9195502,15.83045 2.6973877,15.027526 2.5302768,14.052768 V 13.313149 L 2.5692041,12.378892 2.6989619,11.6782 2.9714533,10.938581 3.2698962,10.211938 3.8538062,9.199827 4.7231834,8.1617648 5.4887543,7.5 6.1764706,7.032872 7.3053633,7.2275087 8.7586508,7.5389273 9.6410033,7.8243945 10.406575,8.044983 l 0.67474,0.2465393 0.895329,0.3762975 0.806072,0.3671229 0.712094,0.3595213 0.791522,0.402249 0.09083,0.077854 -0.402249,0.324395 -0.713668,0.674741 -0.467128,0.532005 -0.506056,0.713669 -0.233564,0.363322 -0.259515,0.596885 -0.233564,0.856401 -0.06488,0.791523 0.02595,0.557959 0.116781,0.596886 0.207613,0.480103 0.480104,0.557958 0.557958,0.259515 0.570934,0.01298 0.726644,-0.27249 L 15,16.258651 l 0.622837,-0.895329 0.532007,-0.895329 0.411425,-0.793749 0.324394,-1.167168 0.02974,-0.699117 0.09475,-0.107959 0.37238,0.211765 0.869377,0.778546 0.999135,0.98616 0.804498,0.960207 0.726644,0.934257 -0.181661,0.609861 -0.415225,0.92128 -0.532007,0.882353 -0.895329,1.025087 -1.025086,0.817474 -1.336505,0.791523 -1.064014,0.415224 -1.855536,0.441177 -1.219724,0.06488 -1.128892,-0.02595 L 9.550173,21.254325 8.1877162,20.852076 7.1626297,20.475778 5.8650519,19.658305 4.865917,18.814879 4.0354671,17.880622 Z"
     id="path959"
     sodipodi:nodetypes="ccccccccccccccccccccccccccccccccccccccccccccccccccccccccccccccccccccc" />
  <path
     style="fill:#ffffff;stroke:none;stroke-width:0.75px;stroke-linecap:butt;stroke-linejoin:miter;stroke-opacity:1;fill-opacity:1"
     d="M 35.53125,14.472656 35.167969,13.746094 34.945312,13.195313 34.816406,12.703125 34.702236,11.99 l 0.219639,-0.247812 0.351562,-0.292969 0.644532,-0.5625 0.46875,-0.410156 0.46875,-0.398438 0.480468,-0.375 0.457032,-0.375 L 38.34375,8.90625 38.8125,8.5664063 38.988281,8.4492188 38.953129,8.6953125 38.800785,9.1875 l -0.105469,0.3867188 -0.04687,0.4804692 -0.04687,0.667968 -0.01172,0.433594 v 0.597656 l 0.04687,0.398438 0.08203,0.515625 0.117187,0.574219 0.1875,0.492187 0.1875,0.46875 0.164063,0.363281 0.328125,0.515625 0.304687,0.421875 0.433594,0.539063 0.585938,0.515625 0.503906,0.386718 0.738281,0.398438 0.667969,0.222656 0.574219,0.105469 0.5625,0.01172 0.46875,-0.09375 0.65625,-0.234375 0.621093,-0.410156 0.433594,-0.515625 0.398438,-0.714843 0.257812,-0.691407 0.140625,-0.644531 0.09375,-0.808594 0.02344,-0.621093 V 12.304688 L 47.097656,11.449219 47.003906,10.757813 46.851562,10.03125 46.558594,9.1875 46.207031,8.4023438 45.703125,7.5820312 45.023437,6.7617187 44.402344,6.2460937 43.945312,5.9414062 43.459344,5.6675 44.027344,5.3320312 44.953125,4.875 46.101562,4.3242187 46.992187,3.9375 47.824219,3.6210938 48.785156,3.28125 49.640625,2.9765625 50.660156,2.671875 51.480469,2.4375 l 0.303843,-0.01 0.69225,0.3498437 0.738282,0.421875 0.867187,0.6210937 0.738281,0.6914063 0.480469,0.5273437 0.386719,0.5390625 0.46875,0.703125 0.363281,0.5976563 0.1875,0.515625 0.222656,0.597656 0.246094,0.8320313 0.164063,0.8085937 0.0586,0.7968758 0.02344,0.855468 v 0.550782 l -0.105473,0.597656 -0.246094,0.925781 -0.304687,0.925781 -0.386719,0.855469 -0.339844,0.527344 -0.386718,0.539062 -0.480469,0.632813 -0.65625,0.691406 -0.855469,0.667969 -0.914062,0.644531 -0.972657,0.492187 -0.855468,0.351563 -0.621094,0.222656 -0.773438,0.222656 -0.902343,0.199219 -1.230469,0.152344 -0.984375,-0.03515 -0.972656,0.03515 -1.03125,-0.105469 -0.996094,-0.164062 -0.832031,-0.1875 -0.773438,-0.246094 -0.585937,-0.246094 -0.796875,-0.386719 -0.5625,-0.316406 -0.574219,-0.328125 -0.738281,-0.492187 -0.796875,-0.644532 -0.632813,-0.621093 -0.5625,-0.621094 -0.445312,-0.597656 -0.386719,-0.65625 z"
     id="path3454" />
  <path
     style="fill:none;stroke:#000000;stroke-width:0.75px;stroke-linecap:butt;stroke-linejoin:miter;stroke-opacity:1"
     d="m 10.937324,32.26 1.718926,2.24 1.03125,1.546875 1.3125,2.4375 1.3125,2.671875 0.984375,1.921875 0.75,1.171875 0.1875,-0.09375 0.515625,-1.96875 0.65625,-1.828125 0.890625,-2.0625 0.796875,-1.875 0.703125,-1.453125 0.84375,-1.546875 1.03125,-1.6875 1.726805,-2.489375 -0.92993,-0.135625 -2.625,0.1875 -2.859375,0.46875 -2.15625,0.515625 -2.625,0.703125 -1.640625,0.5625 z"
     id="path3466" />
  <path
     style="fill:#ffffff;fill-opacity:1;stroke:#000000;stroke-width:0.75px;stroke-linecap:butt;stroke-linejoin:miter;stroke-opacity:1"
     d="M 14.782952,37.62029 13.158815,34.902349 12.263883,33.642814 10.937324,32.26 l 2.188346,-0.672214 2.850524,-0.894932 2.618505,-0.563476 1.988738,-0.364602 1.756718,-0.29831 h 1.690427 0.961223 l -0.53033,0.762349 -0.629767,1.027514 -0.762349,1.093806 -0.629767,1.193243 -0.696058,1.29268 -0.563476,1.491553 -0.76235,1.856155 -0.762349,2.088175 -0.629767,1.59099 -0.298311,1.226389 -0.492906,1.06693 -0.700337,-0.834911 -0.795495,-1.524698 -0.861786,-1.723574 z"
     id="path846"
     sodipodi:nodetypes="cccccccccccccccccccccccccc" />
  <path
     style="fill:#ffffff;stroke:#000000;stroke-width:0.75px;stroke-linecap:butt;stroke-linejoin:miter;stroke-opacity:1;fill-opacity:1"
     d="m 35.664698,29.698485 0.696059,0.696058 0.696058,0.828641 0.563475,0.696058 0.530331,0.662913 0.662913,0.861786 0.497184,0.894932 0.696058,1.259534 0.464039,0.729204 0.696058,1.259534 0.662912,1.193242 0.497185,1.060661 0.828641,1.690427 0.563475,1.126952 0.696059,1.392116 0.563475,-1.226388 0.629767,-1.590991 0.596622,-1.657281 0.563475,-1.425262 0.497185,-1.226388 0.696059,-1.425263 0.928077,-1.723573 0.795495,-1.193242 0.928077,-1.160097 -1.160097,-0.430893 -1.756718,-0.497185 -1.723573,-0.397748 -1.889301,-0.430892 -2.386485,-0.364603 -1.789864,-0.09944 -2.817378,-0.03314 -1.557845,0.132583 z"
     id="path848" />
  <path
     style="fill:#ffffff;stroke:#000000;stroke-width:0.75px;stroke-linecap:butt;stroke-linejoin:miter;stroke-opacity:1;fill-opacity:1"
     d="m 27.113126,53.795358 2.12132,-3.115689 1.29268,-1.922447 0.82864,-1.35897 0.76235,-1.458408 0.629767,-1.193243 0.430893,0.497184 0.861787,0.928078 0.629766,0.729204 0.861787,1.126952 0.662912,0.82864 0.76235,0.961223 0.994369,1.027515 1.093806,1.193243 1.027514,0.861786 1.027515,0.795495 1.027514,0.828641 -0.596621,0.265165 -1.425263,0.563476 -1.060659,0.298311 -1.524699,0.430893 -2.353341,0.629766 -1.988737,0.331457 h -1.988738 l -1.789864,-0.06629 -2.088175,-0.232019 -1.955592,-0.430894 0.961223,-1.35897 z"
     id="path850" />
</svg>
