<?xml version="1.0" encoding="UTF-8" standalone="no"?>
<svg
   xmlns:dc="http://purl.org/dc/elements/1.1/"
   xmlns:cc="http://creativecommons.org/ns#"
   xmlns:rdf="http://www.w3.org/1999/02/22-rdf-syntax-ns#"
   xmlns:svg="http://www.w3.org/2000/svg"
   xmlns="http://www.w3.org/2000/svg"
   xmlns:sodipodi="http://sodipodi.sourceforge.net/DTD/sodipodi-0.dtd"
   xmlns:inkscape="http://www.inkscape.org/namespaces/inkscape"
   version="1.0"
   width="360.000000pt"
   height="320.000000pt"
   viewBox="0 0 360.000000 320.000000"
   preserveAspectRatio="xMidYMid meet"
   id="svg14"
   sodipodi:docname="monster2.svg"
   inkscape:version="1.0.2-2 (e86c870879, 2021-01-15)">
  <defs
     id="defs18" />
  <sodipodi:namedview
     pagecolor="#ffffff"
     bordercolor="#666666"
     borderopacity="1"
     objecttolerance="10"
     gridtolerance="10"
     guidetolerance="10"
     inkscape:pageopacity="0"
     inkscape:pageshadow="2"
     inkscape:window-width="1366"
     inkscape:window-height="745"
     id="namedview16"
     showgrid="false"
     inkscape:zoom="0.95790872"
     inkscape:cx="213.3275"
     inkscape:cy="-18.493208"
     inkscape:window-x="-8"
     inkscape:window-y="-8"
     inkscape:window-maximized="1"
     inkscape:current-layer="svg14" />
  <metadata
     id="metadata2">
Created by potrace 1.16, written by Peter Selinger 2001-2019
<rdf:RDF>
  <cc:Work
     rdf:about="">
    <dc:format>image/svg+xml</dc:format>
    <dc:type
       rdf:resource="http://purl.org/dc/dcmitype/StillImage" />
    <dc:title></dc:title>
  </cc:Work>
</rdf:RDF>
</metadata>
  <ellipse
     style="fill:#ffffff;stroke-width:0;fill-opacity:1"
     id="path20"
     cx="131.43867"
     cy="54.415417"
     rx="51.381462"
     ry="49.913425" />
  <ellipse
     style="fill:#ffffff;stroke-width:0;fill-opacity:1"
     id="path20-1"
     cx="234.29947"
     cy="54.806892"
     rx="51.381462"
     ry="49.913425" />
  <g
     transform="translate(0.000000,320.000000) scale(0.098901,-0.099071)"
     fill="#000000"
     stroke="none"
     id="g12">
    <path
       d="M1369 2730 c-139 -73 -141 -264 -4 -330 68 -33 160 -26 212 16 56 45 75 87 70 156 -2 46 -10 66 -33 95 -61 77 -168 104 -245 63z"
       id="path6" />
    <path
       d="M2125 2916 c-68 -32 -115 -102 -115 -168 1 -98 99 -189 204 -188 41 1 105 31 138 66 76 82 60 205 -35 271 -47 33 -143 42 -192 19z"
       id="path8" />
    <path
       d="M53 1768 c-25 -27 -43 -70 -43 -104 0 -31 7 -30 43 4 23 21 31 24 35 13 15 -42 91 -105 177 -147 106 -51 114 -59 182 -174 73 -123 107 -195 136 -285 63 -197 177 -444 268 -582 57 -85 168 -201 241 -251 150 -103 396 -184 621 -203 212 -18 472 14 649 80 137 51 205 96 318 210 113 115 173 203 266 392 58 116 66 137 125 319 22 69 65 190 97 269 l57 144 100 51 c56 28 123 68 150 89 42 32 55 37 82 32 l33 -6 0 54 c0 61 -27 107 -61 107 -25 0 -36 -27 -20 -52 18 -29 -7 -60 -88 -113 -123 -80 -301 -120 -428 -96 -83 15 -151 38 -186 63 -40 28 -45 15 -13 -33 37 -55 29 -69 -35 -69 -104 0 -238 53 -389 154 -46 31 -85 54 -87 52 -3 -2 8 -22 22 -45 15 -22 25 -47 21 -56 -8 -21 -76 -19 -164 5 -80 22 -131 51 -176 99 -35 37 -46 38 -72 10 -26 -29 -130 -98 -182 -120 -53 -23 -152 -26 -152 -5 0 8 20 36 45 64 43 47 55 72 37 72 -5 0 -19 -12 -33 -26 -90 -98 -266 -174 -399 -174 l-81 0 7 65 c7 70 0 79 -32 44 -41 -46 -209 -108 -291 -109 -42 0 -43 18 -3 85 40 68 38 81 -7 50 -63 -42 -155 -84 -212 -96 -32 -7 -99 -10 -160 -7 -118 5 -167 21 -252 84 -56 41 -71 63 -78 119 -7 48 -35 58 -68 23z"
       id="path10" />
    <path
       d="m 1223,3200 c -22,-5 -76,-23 -119,-41 -66,-28 -92,-46 -160,-113 -59,-59 -90,-100 -115,-151 -34,-69 -73.44622,-204.7306 -40.92699,-317.678 l 15.08366,-52.3893 12.03107,-32.248 C 849.37548,2425.2238 881.63812,2327.059 1072,2214 c 276,-139 601,-40 748,227 l 29,53 18,-33 c 32,-59 109,-155 149,-187 44,-34 96,-64 169,-95 61,-27 239,-38 310,-20 87,22 175,72 247,139 247,233 211,625 -76,811 -91,60 -164,83 -275,89 -113,5 -180,-8 -280,-55 -87,-41 -180,-129 -229,-215 -18,-32 -34,-58 -37,-58 -2,0 -20,28 -39,63 -110,196 -360,311 -583,267 z m 271,-60 c 208,-72 336,-251 336,-469 0,-144 -43,-243 -149,-344 -204,-195 -503.0027,-192.7941 -705.00268,9.2059 -81,81 -138.79356,162.7941 -156.79356,270.7941 -40,248 139.79624,491 394.79624,549 79,18 204,11 280,-16 z m 1001,5 c 87,-23 152,-62 226,-135 119,-118 168,-268 136,-421 -22,-112 -60,-184 -136,-260 -100,-101 -215,-149 -351,-149 -85,1 -140,14 -225,55 -90,43 -180,132 -232,228 l -38,72 v 145 c 0,141 1,147 30,205 36,73 140,179 211,217 106,57 259,74 379,43 z"
       id="path4"
       sodipodi:nodetypes="ccccsccccccccccccccscccscscccccccccccsccc" />
  </g>
</svg>
