<?xml version="1.0" encoding="UTF-8" standalone="no"?>
<svg
   xmlns:dc="http://purl.org/dc/elements/1.1/"
   xmlns:cc="http://creativecommons.org/ns#"
   xmlns:rdf="http://www.w3.org/1999/02/22-rdf-syntax-ns#"
   xmlns:svg="http://www.w3.org/2000/svg"
   xmlns="http://www.w3.org/2000/svg"
   xmlns:sodipodi="http://sodipodi.sourceforge.net/DTD/sodipodi-0.dtd"
   xmlns:inkscape="http://www.inkscape.org/namespaces/inkscape"
   version="1.0"
   width="138.000000pt"
   height="154.000000pt"
   viewBox="0 0 138.000000 154.000000"
   preserveAspectRatio="xMidYMid meet"
   id="svg16"
   sodipodi:docname="monster3.svg"
   inkscape:version="1.0.2-2 (e86c870879, 2021-01-15)">
  <defs
     id="defs20" />
  <sodipodi:namedview
     pagecolor="#ffffff"
     bordercolor="#666666"
     borderopacity="1"
     objecttolerance="10"
     gridtolerance="10"
     guidetolerance="10"
     inkscape:pageopacity="0"
     inkscape:pageshadow="2"
     inkscape:window-width="1366"
     inkscape:window-height="745"
     id="namedview18"
     showgrid="false"
     inkscape:zoom="2.8149351"
     inkscape:cx="136.80921"
     inkscape:cy="96.727304"
     inkscape:window-x="-8"
     inkscape:window-y="-8"
     inkscape:window-maximized="1"
     inkscape:current-layer="svg16" />
  <metadata
     id="metadata2">
Created by potrace 1.16, written by Peter Selinger 2001-2019
<rdf:RDF>
  <cc:Work
     rdf:about="">
    <dc:format>image/svg+xml</dc:format>
    <dc:type
       rdf:resource="http://purl.org/dc/dcmitype/StillImage" />
  </cc:Work>
</rdf:RDF>
</metadata>
  <ellipse
     style="fill:#ffffff;stroke-width:0;fill-opacity:1"
     id="path22"
     cx="36.368519"
     cy="35.569202"
     rx="30.773357"
     ry="29.307959" />
  <ellipse
     style="fill:#ffffff;fill-opacity:1;stroke-width:0"
     id="path22-2"
     cx="101.75095"
     cy="55.301624"
     rx="29.124298"
     ry="29.291796" />
  <ellipse
     style="fill:#ffffff;fill-opacity:1;stroke-width:0"
     id="path914"
     cx="73.26989"
     cy="110.17128"
     rx="15.719724"
     ry="11.589966" />
  <g
     transform="matrix(0.1,0,0,-0.1,-1.3321799,156.39792)"
     fill="#000000"
     stroke="none"
     id="g14">
    <path
       d="m 144,1397 c -67,-70 -88,-130 -82,-236 5,-88 27,-138 85,-196 144,-145 401,-106 493,75 28,56 25,60 -10,12 -38,-52 -101,-99 -154,-113 -188,-52 -370,86 -370,281 0,75 24,136 74,193 49,56 23,44 -36,-16 z"
       id="path4" />
    <path
       d="m 416,1410 c -66,-21 -118,-96 -118,-170 0,-100 77,-180 176,-180 49,0 109,25 138,57 25,27 48,87 48,125 0,48 -37,116 -80,144 -41,27 -118,39 -164,24 z"
       id="path6" />
    <path
       d="M 1226.0888,1218.2611 C 1270.0888,1159.2611 1304,1088 1298,1008 1283,781 1030.3339,670.99654 838.33391,803.99654 L 795,831 796.63205,802.63621 C 911.63205,695.63621 1145,683 1252,796 c 63,67 83,118 83,209 0,67 -5,88 -27,130 -14,28 -43,66 -63,85 l -38,35 z"
       id="path8"
       sodipodi:nodetypes="ccccccscccc" />
    <path
       d="m 885,1147 c -43,-20 -92,-80 -105,-127 -14,-52 -5,-95 28,-144 98,-142 326,-73 326,99 0,61 -30,120 -80,154 -43,29 -125,38 -169,18 z"
       id="path10" />
    <g
       id="g912">
      <path
         d="m 927.04224,596.80086 c -164.0884,-14.83284 -484.91937,17.83959 -658.17084,66.55231 -28.2419,8.9104 -54.55863,11.01696 -57.97364,4.90651 -11.22077,-20.07721 -0.005,-116.84614 18.91532,-162.93324 55.60574,-134.17899 168.69885,-235.18865 297.89303,-268.44319 173.45707,-44.24532 309.07338,3.68368 400.04523,141.86151 38.5148,58.66526 88.97166,191.9923 81.55276,215.61338 -2.4131,5.93096 -38.64016,6.70281 -82.26186,2.44272 z M 823.72046,452.92377 c 5.90314,-46.83112 9.98378,-84.62461 7.26222,-85.39474 -36.71498,-0.10109 -163.23985,13.33239 -164.39505,17.41474 -3.46555,12.24703 11.17537,155.28074 17.02967,165.75581 6.83004,12.22092 121.72467,8.72409 124.70237,-4.39586 2.02811,-4.57021 8.13684,-46.9339 15.40079,-93.37995 z"
         id="path12" />
    </g>
  </g>
  <path
     d="M 59.883388,57.108357 C 66.746532,49.912923 68.897667,43.74541 68.283057,32.849468 67.770882,23.80378 65.51731,18.664184 59.576082,12.702252 44.825443,-2.2025732 18.49965,1.8063103 9.0756299,20.411647 6.2074504,26.167994 6.5147556,26.579162 10.09998,21.645149 13.992511,16.299969 23.50993,9.2040441 28.938983,7.7649571 48.196762,2.4197787 66.319299,16.137987 66.319299,36.182408 c 0,7.709394 -5.001822,16.711481 -10.123571,22.57062 -5.019315,5.756347 -2.356004,4.522843 3.68766,-1.644671 z"
     id="path4-9"
     style="stroke-width:0.102614"
     sodipodi:nodetypes="ccccccscc" />
  <path
     d="M 80.455991,74.217952 C 74.065854,68.696039 73.56157,64.134164 74.176745,56.127785 75.714685,33.409685 102.21813,15.648263 124.07035,38.567202 l 2.69866,1.05294 c -13.96093,-16.033508 -3.9109,-3.547251 -7.40119,-8.722222 -10.85833,-6.845209 -21.969769,-9.338071 -35.737982,0.239106 -5.390829,4.98967 -10.914549,14.035095 -11.950742,23.707547 -0.306598,2.861968 -0.994544,8.964479 1.2611,13.167828 1.43541,2.802232 2.869248,5.466788 5.390829,8.121898 l 11.055265,5.951974 z"
     id="path8-8"
     style="stroke-width:0.101298"
     sodipodi:nodetypes="ccccccscccc" />
</svg>
