<?xml version="1.0" encoding="UTF-8" standalone="no"?>
<svg
   xmlns:dc="http://purl.org/dc/elements/1.1/"
   xmlns:cc="http://creativecommons.org/ns#"
   xmlns:rdf="http://www.w3.org/1999/02/22-rdf-syntax-ns#"
   xmlns:svg="http://www.w3.org/2000/svg"
   xmlns="http://www.w3.org/2000/svg"
   xmlns:sodipodi="http://sodipodi.sourceforge.net/DTD/sodipodi-0.dtd"
   xmlns:inkscape="http://www.inkscape.org/namespaces/inkscape"
   version="1.0"
   width="30.000000pt"
   height="30.000000pt"
   viewBox="0 0 30.000000 30.000000"
   preserveAspectRatio="xMidYMid meet"
   id="svg862"
   sodipodi:docname="player.svg"
   inkscape:version="1.0.2-2 (e86c870879, 2021-01-15)">
  <defs
     id="defs866" />
  <sodipodi:namedview
     pagecolor="#ffffff"
     bordercolor="#666666"
     borderopacity="1"
     objecttolerance="10"
     gridtolerance="10"
     guidetolerance="10"
     inkscape:pageopacity="0"
     inkscape:pageshadow="2"
     inkscape:window-width="1366"
     inkscape:window-height="745"
     id="namedview864"
     showgrid="false"
     inkscape:zoom="10.217693"
     inkscape:cx="22.341748"
     inkscape:cy="31.298044"
     inkscape:window-x="-8"
     inkscape:window-y="-8"
     inkscape:window-maximized="1"
     inkscape:current-layer="svg862" />
  <metadata
     id="metadata852">
Created by potrace 1.16, written by Peter Selinger 2001-2019
<rdf:RDF>
  <cc:Work
     rdf:about="">
    <dc:format>image/svg+xml</dc:format>
    <dc:type
       rdf:resource="http://purl.org/dc/dcmitype/StillImage" />
  </cc:Work>
</rdf:RDF>
</metadata>
  <g
     transform="translate(0.000000,30.000000) scale(0.004854,-0.004839)"
     fill="#000000"
     stroke="none"
     id="g860">
    <path
       d="M4580 3314 c-188 -40 -349 -180 -419 -364 -20 -54 -25 -83 -25 -175 0 -119 8 -158 63 -279 22 -48 52 -90 102 -141 l70 -73 -41 -32 c-42 -33 -90 -113 -90 -150 0 -53 57 -110 110 -110 26 0 72 23 91 46 8 10 53 43 101 74 94 62 128 73 336 106 l112 18 78 -23 c42 -12 108 -36 146 -53 79 -34 119 -33 157 8 18 19 24 37 24 67 -1 73 -20 97 -120 147 -49 25 -91 45 -92 46 -2 0 15 36 37 79 97 193 89 392 -21 561 -131 201 -378 300 -619 248z m195 -138 c72 -33 126 -84 161 -153 25 -50 29 -69 29 -138 0 -67 -4 -89 -28 -137 -33 -67 -90 -121 -166 -157 -80 -37 -192 -37 -272 0 -76 36 -129 86 -165 156 -25 50 -29 69 -29 138 0 64 5 90 24 129 82 168 278 239 446 162z"
       id="path854" />
    <path
       d="m 1350,3284 c -300,-64 -501,-366 -436,-656 9,-41 34,-110 56,-153 22,-43 39,-79 37,-79 -1,-1 -42,-21 -92,-46 -100,-50 -119,-74 -120,-147 0,-30 6,-48 24,-67 38,-41 78,-42 157,-8 38,17 104,41 146,53 l 78,23 112,-18 c 208,-33 242,-44 336,-106 48,-31 93,-64 101,-74 19,-23 65,-46 91,-46 53,0 110,57 110,110 0,37 -48,117 -90,150 l -41,32 70,73 c 50,51 80,93 102,141 55,121 63,160 63,279 0,92 -5,121 -25,175 -103,273 -389,427 -679,364 z m 185,-148 c 72,-33 126,-84 161,-153 25,-50 39.6929,-74.363 39.6929,-143.363 0,-67 -14.6929,-83.637 -38.6929,-131.637 -33,-67 -90,-121 -166,-157 -80,-37 -192,-37 -272,0 -76,36 -129,86 -165,156 -25,50 -34.3465,55.5925 -34.3465,124.5925 0,64 7.6733,111.452 26.6733,150.452 C 1168.3268,3150.0445 1367,3213 1535,3136 Z"
       id="path856"
       sodipodi:nodetypes="ccscsccccccccssccccsccscsccccscs" />
    <path
       d="M2875 2520 c-186 -19 -378 -72 -484 -132 l-54 -31 6 -151 c6 -172 20 -235 76 -351 92 -190 270 -335 481 -391 88 -23 261 -23 355 0 257 63 465 265 535 519 17 62 22 110 23 230 l2 152 -85 43 c-89 45 -222 83 -356 102 -109 15 -390 21 -499 10z m103 -686 c118 -68 112 -66 151 -42 114 68 123 72 205 76 91 4 172 -19 220 -63 40 -37 33 -62 -32 -125 -142 -139 -352 -202 -551 -166 -155 28 -341 140 -341 206 0 42 86 114 170 141 44 15 127 2 178 -27z"
       id="path858" />
  </g>
  <path
     style="fill:#ffffff;stroke:none;stroke-width:0.75px;stroke-linecap:butt;stroke-linejoin:miter;stroke-opacity:1;fill-opacity:1"
     d="m 5.1381462,16.506295 -0.027531,-0.192681 0.01835,-0.302784 0.036701,-0.238556 0.064227,-0.165155 0.1101031,-0.211031 0.1559795,-0.220206 0.2202063,-0.211031 0.2569073,-0.146805 0.2293815,-0.100927 0.3670104,-0.08258 0.2660826,-0.0092 0.3670105,0.06423 0.4404126,0.201856 0.2385563,0.155979 0.192681,0.220207 0.2752575,0.394536 0.1009282,0.339484 0.036697,0.33031 L 8.3861805,16.735652 8.2210253,17.020085 8.0375205,17.276993 7.789788,17.524724 7.5787575,17.644003 7.2759739,17.772457 6.8630872,17.827507 6.5786621,17.809182 6.2391775,17.744955 6.0281464,17.644027 5.7987649,17.506398 5.6152597,17.368769 5.4409297,17.176088 5.3124761,16.955882 Z"
     id="path1431"
     sodipodi:nodetypes="cccccccccccccccccccccccccccccccccc" />
  <path
     style="fill:#ffffff;fill-opacity:1;stroke:none;stroke-width:0.75px;stroke-linecap:butt;stroke-linejoin:miter;stroke-opacity:1"
     d="m 20.827842,16.120934 0.06423,-0.422063 0.09175,-0.275258 0.15598,-0.284433 0.19268,-0.220205 0.220206,-0.17433 0.247732,-0.146805 0.311959,-0.09175 0.293609,-0.0367 0.403711,0.01835 0.238557,0.05505 0.302784,0.137628 0.311958,0.201856 0.247733,0.284433 0.128453,0.302784 0.09175,0.385361 0.0092,0.339485 -0.08258,0.422061 -0.201856,0.367011 -0.275258,0.275258 -0.394536,0.247732 -0.412887,0.110103 -0.412887,0.01835 -0.412886,-0.08258 -0.394537,-0.201856 -0.256907,-0.229381 -0.183505,-0.220206 -0.15598,-0.266083 -0.09175,-0.256907 z"
     id="path1435"
     sodipodi:nodetypes="cccccccccccccccccccccccccccccc" />
  <path
     style="fill:#ff0000;stroke:none;stroke-width:0.75px;stroke-linecap:butt;stroke-linejoin:miter;stroke-opacity:1;fill-opacity:1"
     d="m 12.762788,21.571039 0.238556,-0.266083 0.321135,-0.211031 0.302784,-0.137629 0.275257,-0.01835 0.238557,0.0367 0.256907,0.0734 0.275258,0.146804 0.238557,0.146805 0.137629,0.04588 0.266083,-0.146804 0.293608,-0.192681 0.302783,-0.100927 0.422063,-0.02753 0.486288,0.0734 0.256908,0.128453 0.15598,0.100928 0.155978,0.183505 0.0092,0.128454 -0.110103,0.183505 -0.183506,0.211031 -0.293608,0.238557 -0.357835,0.220206 -0.357835,0.155979 -0.321134,0.09175 -0.34866,0.0734 -0.422062,0.0367 -0.293609,-0.01835 -0.412886,-0.04588 -0.412887,-0.119279 -0.403711,-0.21103 -0.385362,-0.220207 -0.165154,-0.137629 -0.137629,-0.146804 -0.04588,-0.17433 z"
     id="path1437" />
</svg>
