<?xml version="1.0" encoding="UTF-8" standalone="no"?>
<svg
   xmlns:dc="http://purl.org/dc/elements/1.1/"
   xmlns:cc="http://creativecommons.org/ns#"
   xmlns:rdf="http://www.w3.org/1999/02/22-rdf-syntax-ns#"
   xmlns:svg="http://www.w3.org/2000/svg"
   xmlns="http://www.w3.org/2000/svg"
   xmlns:sodipodi="http://sodipodi.sourceforge.net/DTD/sodipodi-0.dtd"
   xmlns:inkscape="http://www.inkscape.org/namespaces/inkscape"
   version="1.1"
   id="svg833"
   width="256"
   height="256"
   viewBox="0 0 256 256"
   sodipodi:docname="shockedFace.svg"
   inkscape:version="1.0.2-2 (e86c870879, 2021-01-15)">
  <metadata
     id="metadata839">
    <rdf:RDF>
      <cc:Work
         rdf:about="">
        <dc:format>image/svg+xml</dc:format>
        <dc:type
           rdf:resource="http://purl.org/dc/dcmitype/StillImage" />
        <dc:title />
      </cc:Work>
    </rdf:RDF>
  </metadata>
  <defs
     id="defs837" />
  <sodipodi:namedview
     pagecolor="#ffffff"
     bordercolor="#666666"
     borderopacity="1"
     objecttolerance="10"
     gridtolerance="10"
     guidetolerance="10"
     inkscape:pageopacity="0"
     inkscape:pageshadow="2"
     inkscape:window-width="1366"
     inkscape:window-height="745"
     id="namedview835"
     showgrid="false"
     inkscape:zoom="2.1679688"
     inkscape:cx="182.56569"
     inkscape:cy="159.29178"
     inkscape:window-x="-8"
     inkscape:window-y="-8"
     inkscape:window-maximized="1"
     inkscape:current-layer="layer1"
     inkscape:document-rotation="0" />
  <g
     inkscape:groupmode="layer"
     id="layer1"
     inkscape:label="Image 2">
    <path
       style="fill:#ff0000;stroke:#000000;stroke-width:1px;stroke-linecap:butt;stroke-linejoin:miter;stroke-opacity:1;fill-opacity:1"
       d="m 142.99099,107.47387 c 0.0229,-1.15053 0.0828,-4.52976 -0.46126,-5.07387 -0.10872,-0.10872 -0.3925,0.13752 -0.46126,0 -0.13753,-0.27505 0.13752,-0.64748 0,-0.92252 -0.13753,-0.27505 -0.70509,0.21744 -0.92253,0 -0.2431,-0.24311 -0.3075,-0.61502 -0.46126,-0.92253 -0.36365,-0.727301 0,-2.374662 0,-3.228826 0,-0.675087 0.93839,-1.829176 0.92252,-1.845045 -0.30753,-0.307532 -1.94336,0.18147 -2.3063,0 -0.13752,-0.06876 0.10872,-0.352541 0,-0.461261 -0.65303,-0.653025 -2.65543,-2.069335 -1.84505,-3.69009 1.21472,-2.429425 5.8064,1.478783 7.84144,0.461261 1.3465,-0.673248 2.83563,-4.572294 3.69009,-5.996396 0.50653,-0.844206 1.25435,-1.518703 1.84505,-2.306307 0.33262,-0.443493 1.07628,-0.461261 1.38378,-0.922522 0.17058,-0.255862 -0.17057,-0.666661 0,-0.922523 1.44553,-2.168285 1.97839,0.891901 2.30631,1.383784 0.42465,0.636977 1.42647,0.503946 1.84504,0.922523 0.10872,0.10872 -0.10872,0.352541 0,0.461261 0.84565,0.845645 3.76697,-0.384385 4.61262,0.461261 0.10872,0.10872 -0.10872,0.352541 0,0.461261 0.80655,0.806553 10.7285,-0.803025 11.53153,0 1.14777,1.147772 0.8037,7.782032 0.92252,7.841442 0.62074,0.310367 2.08165,-0.137184 2.76757,0 2.06365,0.41273 3.71588,1.857939 5.53513,2.767567 1.14875,0.574376 3.20858,-0.02025 4.15135,0.922523 0.26391,0.263901 0,1.955023 0,2.306306 0,1.306661 0.53206,7.238601 0,8.302701 -0.0972,0.19449 -0.36401,0.26678 -0.46126,0.46126 -0.23633,0.47267 -0.8203,2.20409 -1.38378,2.76757 -0.10872,0.10872 -0.35254,-0.10872 -0.46126,0 -0.21744,0.21744 0.13752,0.64748 0,0.92252 -0.4246,0.84919 -0.95919,0.0733 -1.38379,0.92253 -0.30741,0.61481 -0.82219,4.97354 -0.92252,5.07387 -0.0341,0.0341 -1.81398,1.32165 -1.84504,1.38378 -0.13753,0.27505 0.17057,0.66666 0,0.92253 -0.67049,1.00572 -1.51999,0.0681 -2.30631,0.46126 -0.13752,0.0688 0.10872,0.35254 0,0.46126 -0.23063,0.23063 -0.69189,0.23063 -0.92252,0.46126 -0.58405,0.58405 -1.42401,3.14839 -0.92252,4.15135 0.13752,0.27504 0.70508,-0.21744 0.92252,0 0.10008,0.10009 0.37133,0.87756 0.46126,0.92252 0.54765,0.27383 3.55664,-0.13345 4.15135,0.46126 0.5472,0.5472 0.0734,1.53059 0.46126,2.30631 0.045,0.0899 0.82244,0.36118 0.92252,0.46126 0.86007,0.86007 2.33409,2.85089 2.76757,4.15135 0.0486,0.14587 -0.13752,0.3925 0,0.46126 0.27504,0.13753 0.64748,-0.13752 0.92252,0 0.27505,0.13753 -0.21744,0.70509 0,0.92253 0.10872,0.10872 0.35254,-0.10872 0.46127,0 1.80018,1.80018 -0.10678,0.24772 0.46126,1.38378 0.95983,1.91966 -0.0318,-0.4931 0.92252,0.46126 0.0935,0.0935 0.0935,2.21281 0,2.30631 -0.62009,0.62009 -1.45868,0.8187 -2.30631,1.38378 -1.23003,0.82002 1.84825,0.15269 -0.46126,0.92252 -0.89218,0.2974 -4.88375,0.83215 -5.99639,0.46127 -2.14197,-0.71399 -0.008,-0.77379 -0.92253,-1.38379 -2.99617,-1.99745 -0.43381,0.009 -1.84504,-0.46126 -0.30751,-0.15375 -0.61502,-0.30751 -0.92252,-0.46126 0,-0.15375 0.13752,-0.3925 0,-0.46126 -0.55009,-0.27505 -1.41017,-0.43488 -1.84505,0 -0.10872,0.10872 0.10872,0.35254 0,0.46126 -0.26393,0.26393 -1.16572,0.26833 -1.38378,0.92252 -0.0973,0.29173 0.13752,0.64748 0,0.92252 -0.0688,0.13753 -0.35254,-0.10872 -0.46126,0 -0.6919,0.6919 0.69189,3.45946 0,4.15136 -0.10873,0.10872 -0.35255,-0.10873 -0.46127,0 -0.53813,0.53813 0.53814,2.69069 0,3.22882 -1.08908,1.08909 0.24258,-2.57278 -0.92252,0.92253 -0.52438,1.57314 0.73499,4.06515 0,5.53513 -0.0688,0.13752 -0.35254,-0.10872 -0.46126,0 -0.44281,0.44281 0.29118,2.18522 0,2.76757 -1.04461,2.08922 -0.54029,4.69164 -1.84504,5.9964 -0.57504,0.57503 -1.66143,-0.0896 -1.38379,-0.92253 1.1137,-3.3411 -0.13298,0.72723 0.92252,-1.38378 0.29232,-0.58463 0,-2.09958 0,-2.76757 0,-0.36117 -0.23015,-2.07615 0,-2.3063 0.10872,-0.10873 0.35254,0.10872 0.46127,0 0.0319,-0.0319 0,-5.47844 0,-5.9964 0,-2.42181 -0.46127,-3.5409 -0.46127,-5.9964 0,-1.34834 0.0366,-5.05556 0,-5.07387 -0.27504,-0.13752 -0.64748,0.13752 -0.92252,0 -0.27504,-0.13752 0.21744,-0.70508 0,-0.92252 -0.3438,-0.34381 -1.16634,-0.0264 -1.38378,-0.46126 -0.13752,-0.27505 0.13752,-0.64748 0,-0.92253 -0.12877,-0.25754 -1.60538,-0.22159 -1.84505,-0.46126 -0.30769,-0.30769 0.3077,-0.61483 0,-0.92252 -0.45934,-0.45935 -3.34825,-0.29855 -4.15135,-2.30631 -0.47688,-1.1922 -1.04541,-5.53513 0.92252,-5.53513 0.46127,0 0.20629,0.97122 0,1.38378 -0.14629,0.2926 -8.30151,0.46365 -8.3027,0.46126 -0.59748,-1.19496 0.90271,-4.63243 0,-5.53513 -0.92013,-0.92013 -0.002,0.92013 -0.92252,0 -0.32616,-0.32616 0.20628,-0.97122 0,-1.38379 -0.13752,-0.27504 -0.70508,0.21744 -0.92252,0 -0.21744,-0.21744 0.21744,-0.70508 0,-0.92252 -0.23063,-0.23063 -1.15316,0.23063 -1.38379,0 -0.7127,-0.7127 0.084,-2.68354 -0.46126,-3.22883 -0.21744,-0.21744 -0.785,0.27505 -0.92252,0 -0.13752,-0.27504 0.13752,-0.64748 0,-0.92252 -0.0688,-0.13752 -0.35254,0.10872 -0.46126,0 -0.20737,-0.20737 -0.71332,-2.81042 -0.92252,-3.22883 -0.95983,-1.91966 0.0318,0.49311 -0.92253,-0.46126 -0.21744,-0.21744 0.21744,-0.70508 0,-0.92252 -0.10872,-0.10872 -0.35254,0.10872 -0.46126,0 -0.29258,-0.29259 0.19202,-1.46101 0,-1.84505 -0.31783,-0.63566 -1.08178,-0.62052 -1.38378,-0.92252 -0.18315,-0.18315 0,-2.87271 0,-3.22883 z"
       id="path880" />
    <path
       style="fill:#ff0000;stroke:#000000;stroke-width:1px;stroke-linecap:butt;stroke-linejoin:miter;stroke-opacity:1;fill-opacity:1"
       d="m 70.11171,162.82522 c -1.200924,-0.0819 -7.957484,-0.058 -8.763964,-0.46126 -1.919659,-0.95983 0.493105,0.0318 -0.461261,-0.92252 -0.02256,-0.0226 -3.007981,-0.12021 -3.69009,-0.46126 -0.790218,-0.39511 -2.494028,0.48986 -3.228829,0 -4.536934,-3.02463 0.199361,-5.59768 -0.922522,-7.84144 -2.021987,-4.04398 -3.923625,-1.61732 -5.073874,-2.76757 -0.461261,-0.46126 0.461261,-2.30631 0,-2.76757 -0.100085,-0.10008 -0.877557,-0.37133 -0.922522,-0.46126 -0.558587,-1.11718 1.287402,-4.70899 0.461261,-5.53514 -0.108721,-0.10872 -0.352541,0.10872 -0.461261,0 -0.217441,-0.21744 0.21744,-0.70508 0,-0.92252 -0.434882,-0.43488 -1.317674,0.31642 -1.845045,0 -1.168696,-0.70122 -1.148461,-2.64521 -1.845045,-3.69009 -0.307508,-0.46126 -1.076277,-0.46126 -1.383784,-0.92252 -0.44244,-0.66366 0.107978,-1.3298 -0.922523,-1.84505 -0.137521,-0.0688 -0.3925,0.13753 -0.461261,0 -0.06343,-0.12686 -0.891235,-2.73628 -0.922522,-2.76756 -0.307508,-0.30751 -1.076277,-0.15376 -1.383784,-0.46126 -0.123003,-0.12301 -0.123003,-1.72205 0,-1.84505 0.21744,-0.21744 0.658837,0.15821 0.922522,0 0.84505,-0.50703 3.228829,-2.37548 3.228829,-3.22883 0,-2.36234 -1.379546,-14.30757 -0.461261,-16.14414 0.291727,-0.58346 0.99239,-0.86193 1.383784,-1.38379 0.291727,-0.38897 0.117457,-1.03998 0.461261,-1.38378 0.1292,-0.1292 2.117599,-0.0943 2.306306,0 0.395783,0.19789 0.955912,3.26222 1.845045,4.15135 1.082079,1.08208 3.365245,-0.16242 4.612613,0.46126 0.262097,0.13105 -0.222506,1.62254 0,1.84505 0.08499,0.085 1.29879,0.37627 1.383783,0.46126 0.209225,0.20922 0.931788,2.99356 0.461262,3.22883 -0.275043,0.13752 -0.705082,-0.21744 -0.922523,0 -0.217441,0.21744 0.09724,0.63079 0,0.92252 -0.03514,0.10541 -1.00124,1.57506 -0.461261,1.84505 0.275043,0.13752 0.615015,0 0.922522,0 0.768769,0.46126 1.636231,0.78816 2.306307,1.38378 0.988553,0.87871 1.248194,2.43524 2.306306,3.22883 0.388969,0.29172 0.979231,0.19156 1.383784,0.46126 0.404552,0.2697 0.117457,1.03998 0.461261,1.38378 0.243106,0.24311 0.679416,0.21816 0.922522,0.46126 1.036039,1.03604 1.031063,2.73366 2.306307,3.69009 3.137692,2.35327 2.896819,6.52229 5.535135,7.84145 0.516322,0.25816 1.902972,0.19237 2.306306,0.46126 0.286062,0.1907 0.218155,0.67941 0.461261,0.92252 0.434881,0.43488 1.241973,-0.12062 1.845045,0 1.25275,0.25055 1.261686,0.75701 2.306306,1.38378 1.376416,0.82585 2.767568,0.4392 2.767568,2.30631 0,2.00744 0.255862,-0.20451 -1.383784,1.84504 -0.303734,0.37967 -0.243821,0.94891 -0.461261,1.38379 -0.153754,0.30751 -0.768769,0.15375 -0.922523,0.46126 -0.137521,0.27504 0.170575,0.66666 0,0.92252 -0.190708,0.28606 -0.679416,0.21816 -0.922522,0.46126 -0.94041,0.94041 -1.006103,1.79242 -2.306306,2.76757 -0.449447,0.33709 -1.101619,0.35819 -1.383784,0.92252 -0.316191,0.63238 0.473139,2.29443 0,2.76757 -0.10872,0.10872 -0.352541,-0.10872 -0.461261,0 -0.326161,0.32616 0.206282,0.97122 0,1.38378 -0.02483,0.0497 -0.739564,0.55661 -0.922523,0.92253 -0.550119,1.10023 0,4.38646 0,5.53513 z"
       id="path926" />
    <path
       style="fill:#ff0000;stroke:#000000;stroke-width:1px;stroke-linecap:butt;stroke-linejoin:miter;stroke-opacity:1;fill-opacity:1"
       d="m 144.83603,53.967566 c 3.32223,2.070451 7.3918,1.385236 11.07027,1.845045 1.70908,0.213635 4.14773,0.989454 5.9964,0.461262 0.76877,-0.307508 1.53754,-0.615015 2.30631,-0.922523 0.15375,-0.153754 0.26677,-0.364019 0.46126,-0.461261 0.9494,-0.4747 6.56699,-1.559744 7.84144,-0.922523 0.96917,0.484585 -0.009,0.91356 0.46126,1.383784 0.35587,0.355876 2.33663,0.635229 2.76757,0.922523 0.12793,0.08529 -0.13753,0.3925 0,0.461261 1.67061,0.835304 15.11991,1.688903 15.68288,0 0.25513,-0.765394 2.17091,-7.18971 1.84504,-7.841441 -0.76262,-1.525255 -3.26576,-1.047073 -4.61261,-1.383784 -2.44458,-0.611146 -4.76417,-1.690194 -6.91892,-2.767568 -0.67454,-0.337271 -2.26875,0.498812 -2.76756,0 -0.10873,-0.10872 0.10872,-0.352541 0,-0.461261 -0.71006,-0.710054 -2.05752,-1.134991 -2.76757,-1.845045 -0.48621,-0.486212 -0.43631,-1.358833 -0.92252,-1.845045 -1.586,-1.585995 -6.07756,-1.701662 -8.30271,-1.383784 -2.30394,0.329135 -3.81295,3.423535 -5.99639,4.151352 -1.70469,0.568229 -9.01634,0.227524 -10.60901,0 -0.34035,-0.04862 -0.5854,-0.393836 -0.92252,-0.461262 -0.68242,-0.136483 -12.79929,-1.038548 -12.91532,-0.922522 -0.76897,0.768972 0.0551,2.251205 -0.46126,2.767567 -0.10872,0.108721 -0.35254,-0.10872 -0.46126,0 -0.15678,0.156781 -0.15678,2.610787 0,2.767568 0.56181,0.561808 1.03055,0.216065 1.38378,0.922522 0.35994,0.719878 -0.14173,1.77418 0.92252,2.306307 0.69951,0.349754 2.12361,-0.429311 2.76757,0 0.61508,0.410054 1.15845,1.501745 1.84505,1.845045 0.13752,0.06876 0.3075,0 0.46126,0 0.61501,0.461261 1.23003,0.922522 1.84504,1.383783 z"
       id="path928" />
    <path
       style="fill:#ff0000;stroke:#000000;stroke-width:1px;stroke-linecap:butt;stroke-linejoin:miter;stroke-opacity:1;fill-opacity:1"
       d="m 193.26846,174.81801 c -2.65513,-0.38797 -1.24285,-0.78159 -2.76756,-2.3063 -2.57201,-2.57201 2.00917,-5.55071 3.22883,-7.38018 0.62898,-0.94348 0.0617,-1.50727 0.46126,-2.30631 0.24792,-0.49584 0.71663,-0.86907 0.92252,-1.38378 0.58141,-1.45353 -0.6603,-9.02619 0,-9.68649 0.42496,-0.42496 4.0412,-2.89839 4.15135,-3.22883 0.71198,-2.13594 -0.43192,-5.22057 0,-7.38018 0.96383,-4.81915 0.45363,-10.13629 3.22883,-14.2991 0.30751,-0.46126 0.46126,-1.07627 0.92252,-1.38378 0.4871,-0.32473 2.89035,0.01 3.22883,0.46126 1.37907,1.83876 0.20142,7.06193 0.92252,9.22523 0.38663,1.15988 1.50219,1.77966 0.92253,3.22883 -0.85085,2.1271 -2.68688,3.5287 -3.69009,5.53513 -0.20629,0.41256 0.11187,0.93629 0,1.38378 -0.77674,3.10694 -0.007,0.007 -0.92253,0.92253 -0.76641,0.76641 0.66082,3.03582 0.92253,3.69009 0.43488,1.0872 1.06209,2.10293 1.38378,3.22883 0.12672,0.44351 -0.17131,0.95551 0,1.38378 0.4641,1.16024 1.93204,2.38016 2.30631,3.69009 0.16895,0.59135 -0.10111,1.2384 0,1.84504 0.20392,1.22357 1.13985,2.47045 1.38378,3.69009 0.33532,1.67661 0.50351,3.39785 0.92252,5.07388 0.28517,1.14068 2.05439,6.03898 1.38379,7.38018 -0.24365,0.48729 -1.99692,2.53552 -2.30631,2.76757 -0.49201,0.369 -1.24839,-0.14917 -1.84505,0 -2.06592,0.51648 -3.88804,0.70278 -5.99639,0 -0.55352,-0.18451 -1.29153,0.1845 -1.84505,0 -1.06633,-0.35545 -1.82616,-1.06999 -2.76756,-1.38379 -0.59034,-0.19678 -3.66393,-0.8702 -3.69009,-0.92252 -0.28351,-0.56702 -0.30751,-1.23003 -0.46127,-1.84505 z"
       id="path930" />
    <path
       style="fill:#ff0000;stroke:#000000;stroke-width:1px;stroke-linecap:butt;stroke-linejoin:miter;stroke-opacity:1;fill-opacity:1"
       d="m 97.326124,225.09549 c -2.291815,-0.47283 -7.334704,0.968 -8.763964,-0.46126 -0.263902,-0.2639 0,-1.95502 0,-2.30631 0,-1.12851 -0.196008,-2.24292 0.461261,-3.22883 0.676504,-1.01475 3.505173,-1.93647 3.69009,-2.3063 0.388928,-0.77786 -0.591263,-3.09883 0,-3.69009 0.243106,-0.24311 0.716241,-0.18622 0.922523,-0.46126 0.291727,-0.38897 0.24382,-0.94891 0.461261,-1.38379 0.328381,-0.65676 1.81365,-2.27491 2.306306,-2.76756 1.693338,-1.69334 2.106961,3.02948 2.306307,3.22882 0.122098,0.1221 1.193852,0 1.383782,0 0.92757,0 1.01808,-0.55681 1.38379,-0.92252 0.51432,-0.51432 2.11496,-0.13496 2.76756,-0.46126 0.76448,-0.38224 0.86102,-1.32228 1.38379,-1.84504 0.13191,-0.13192 2.5317,-0.933 2.76756,-0.46127 0.60042,1.20084 0.16523,8.00667 0.46127,8.30271 0.40418,0.40418 2.65982,0 3.22882,0 1.20832,0 7.25403,-0.52434 8.30271,0 0.93946,0.46973 0.43331,1.35583 0.92252,1.84504 0.10872,0.10872 0.35254,-0.10872 0.46126,0 0.20172,0.20172 0.18218,2.86447 0,3.22883 -0.46812,0.93624 -1.78627,1.32501 -2.30631,1.84505 -0.10872,0.10872 0.10872,0.35254 0,0.46126 -0.19328,0.19328 -1.10423,0.32148 -1.38378,0.46126 -0.99097,0.49548 0.0684,0.42704 -0.92252,0.92252 -0.27505,0.13752 -0.70508,-0.21744 -0.92252,0 -0.10873,0.10872 0.10872,0.35254 0,0.46126 -0.35175,0.35175 -3.66088,0 -4.15136,0 -1.62667,0 -10.74754,0.13853 -11.07027,0.46126 -0.10872,0.10872 0.10872,0.35254 0,0.46126 -0.21744,0.21744 -0.70508,-0.21744 -0.92252,0 -0.108719,0.10872 0.10872,0.35254 0,0.46127 -0.0842,0.0842 -2.281644,0.0493 -2.306305,0 -0.283508,-0.56702 -0.307507,-1.23003 -0.461261,-1.84505 z"
       id="path945" />
    <path
       style="fill:#ff0000;fill-opacity:1;stroke:#000000;stroke-width:1px;stroke-linecap:butt;stroke-linejoin:miter;stroke-opacity:1"
       d="m 163.28648,225.09549 -3.69008,1.38378 c 0,0 -1.52988,0.15759 -2.76757,-0.46126 -1.0193,-0.50964 -2.72032,-1.93954 -1.84505,-3.69009 0.29304,-0.58609 3.06359,-2.45431 3.69009,-2.76756 0.36901,-0.18451 1.01477,0.1845 1.38378,0 0.63924,-0.31962 1.12729,-1.12729 1.38379,-1.38379 0.10872,-0.10872 0.3925,0.13752 0.46126,0 0.13752,-0.27504 -0.13752,-0.64748 0,-0.92252 0.12469,-0.24938 1.69567,-0.77315 1.84504,-0.92252 0.21744,-0.21744 -0.21744,-0.70509 0,-0.92253 0.10872,-0.10872 0.35254,0.10872 0.46127,0 1.06359,-1.06359 0.01,-4.62254 1.84504,-6.45765 0.7593,-0.75931 1.62783,1.61888 2.30631,1.84504 0.74013,0.24671 2.73468,-0.49414 3.22883,0 0.78623,0.78624 -2.63216,0.92252 1.38378,0.92252 1.7258,0 5.99139,-2.76423 7.38018,-3.69009 1.11303,-0.74202 5.14078,-4.35207 5.53513,-5.53513 0.47812,-1.43434 -0.20565,-3.74004 0.46127,-5.07387 0.32556,-0.65114 0.908,-0.68464 1.38378,-0.92253 2.1468,-1.0734 1.66069,-1.75274 4.15135,-0.92252 0.29173,0.0972 0.64748,-0.13752 0.92252,0 0.13752,0.0688 -0.10872,0.35254 0,0.46126 1.15649,1.15649 2.70539,-2.95156 3.69009,-3.69009 1.74628,-1.30971 4.06125,0.0225 5.9964,-0.46126 0.94339,-0.23585 2.33269,-1.79228 2.76757,-0.92252 0.60675,1.2135 -0.12854,4.07571 -0.46126,5.07387 -0.19449,0.58346 0.14916,1.24839 0,1.84505 -0.17668,0.7067 -1.11171,3.87927 -1.38379,4.15135 -0.2431,0.2431 -0.67941,0.21815 -0.92252,0.46126 -3.14672,3.14671 -1.76886,3.9722 -6.45766,5.53513 -0.41256,0.13753 -0.53355,0.72804 -0.92252,0.92253 -0.36901,0.1845 -1.01478,-0.18451 -1.38378,0 -3.32753,1.66376 -1.22662,3.22371 -2.76757,5.53513 -0.0125,0.0188 -1.69908,1.55312 -1.84505,1.84505 -0.13752,0.27504 0.21744,0.70508 0,0.92252 -0.3438,0.3438 -0.97923,0.19156 -1.38378,0.46126 -0.15683,0.10455 -0.31058,0.77184 -0.46126,0.92252 -0.21744,0.21744 -0.70508,-0.21744 -0.92252,0 -0.33109,0.33109 -0.68276,1.49454 -1.38379,1.84505 -0.47306,0.23653 -1.97805,0.8914 -2.3063,1.38378 -0.17058,0.25586 0.13752,0.64748 0,0.92252 -0.21745,0.43489 -1.03998,0.11746 -1.38379,0.46127 -0.2431,0.2431 -0.1752,0.73181 -0.46126,0.92252 -0.78647,0.52431 -1.39801,0.007 -2.30631,0.46126 -1.2007,0.60035 -2.31724,1.38743 -3.69009,1.84504 -0.29172,0.0972 -0.70508,-0.21744 -0.92252,0 -0.38131,0.38132 -0.42955,0.90667 -1.38378,1.38379 -0.65625,0.32812 -10.55911,1.43368 -11.07027,0.92252 -0.96192,-0.96192 3.57477,-2.65225 3.57477,-2.65225 0.5289,-0.43941 2.03723,-4.57417 -1.72973,-1.03784 z"
       id="path947"
       sodipodi:nodetypes="csssssssssscsssssssssssssssssssscssssssssssscsssssc" />
    <path
       style="fill:#ff0000;stroke:#000000;stroke-width:1px;stroke-linecap:butt;stroke-linejoin:miter;stroke-opacity:1;fill-opacity:1"
       d="m 68.727926,218.63783 c -5.816915,-3.11562 -8.529092,-4.62109 -5.073873,-11.53153 0.04063,-0.0813 1.548919,-2.14117 1.383783,-2.3063 -0.490999,-0.491 -6.425648,0.47726 -7.38018,0 -0.495152,-0.24758 -0.737713,-1.8756 -1.383783,-2.30631 -1.419526,-0.94635 -0.371638,-1.29416 -0.922523,-1.84505 -0.620247,-0.62024 -1.868446,-0.96932 -2.306306,-1.84504 -0.467054,-0.93411 -2.033125,-5.15898 -1.383784,-6.45766 0.959829,-1.91966 -0.03184,0.49311 0.922523,-0.46126 0.405864,-0.40586 1.08142,-1.54268 1.383783,-1.84504 1.582997,-1.583 3.228829,0.004 3.228829,-3.69009 0,-1.49619 -0.795099,-6.62458 2.306306,-5.07388 0.137522,0.0688 -0.137521,0.3925 0,0.46126 1.292755,0.64638 3.027414,0.25985 4.151352,1.38379 1.553478,1.55348 0.0487,6.55506 0.922522,8.3027 0.587526,1.17505 0.392249,0.25422 0.922523,1.84504 0.479914,1.43975 0.307507,-0.15375 0.922522,0.46127 0.820659,0.82065 1.867997,2.32925 2.767568,3.22882 0.391996,0.392 0.991787,0.53053 1.383783,0.92253 0.739018,0.73901 0.917828,2.75817 1.383784,3.69009 0.433143,0.86628 1.002484,0.62118 1.383784,1.38378 0.19202,0.38404 -0.292584,1.55246 0,1.84505 0.10872,0.10872 0.352541,-0.10873 0.461261,0 0.560157,0.56015 0,4.6833 0,5.53513 0,0.18993 0.122099,1.26169 0,1.38378 -0.10872,0.10872 -0.3925,-0.13752 -0.461261,0 -0.289494,0.57899 -0.171767,0.8048 -0.461261,1.38379 -0.264971,0.52994 -0.0082,2.77575 -0.461262,3.22883 -0.753925,0.75392 -2.043224,1.48287 -3.69009,2.3063 z"
       id="path949" />
  </g>
  <g
     inkscape:groupmode="layer"
     inkscape:label="Image"
     id="g841">
    <path
       style="fill:#000000;fill-opacity:1;stroke:#000000;stroke-width:1px;stroke-linecap:butt;stroke-linejoin:miter;stroke-opacity:1"
       d="m 192.8942,90.513153 -5.07387,-5.9964 -6.91892,-6.22703 -8.53333,-3.92072 -10.83964,-1.38378 -6.22703,0.46126 -1.38379,1.61441 0.23063,1.15316 1.15316,1.61441 4.61261,-0.69189 4.15135,0.23063 4.61262,0.92252 5.53513,1.61442 5.53514,3.22883 4.84324,4.61261 4.61261,5.3045 2.53694,-0.23063 z"
       id="path845-3"
       inkscape:transform-center-x="-1.3554655"
       inkscape:transform-center-y="-1.8544186" />
    <ellipse
       style="fill:#000000;fill-opacity:1;stroke:#000000;stroke-width:0;stroke-opacity:1"
       id="path871"
       cx="92.936089"
       cy="107.46664"
       rx="15.40531"
       ry="15.47286" />
    <ellipse
       style="fill:#000000;fill-opacity:1;stroke:#000000;stroke-width:0;stroke-opacity:1"
       id="path871-0"
       cx="162.59459"
       cy="107.93513"
       rx="15.40531"
       ry="15.47286" />
    <path
       style="fill:#ff0000;stroke:#000000;stroke-width:1px;stroke-linecap:butt;stroke-linejoin:miter;stroke-opacity:1;fill-opacity:1"
       d="m 187.73333,124.54054 c -3.40691,1.99052 -1.3717,0.9346 -2.30631,0 -0.69156,-0.69156 -1.38378,0.52285 -1.38378,-1.38379 0,-1.23003 0,-2.46006 0,-3.69009 0,-1.7047 -0.0933,-2.67425 0.92252,-3.69009 0.10872,-0.10872 0.35254,0.10872 0.46126,0 0.10872,-0.10872 -0.10872,-0.35254 0,-0.46126 0.32616,-0.32616 0.9462,0.14587 1.38379,0 0.29099,-0.097 1.34911,-0.95719 1.84504,-0.46126 0.79729,0.79729 -0.52051,4.03285 0,5.07388 0.0688,0.13752 0.35254,-0.10873 0.46126,0 0.21744,0.21744 -0.21744,0.70508 0,0.92252 0.30751,0.30751 1.07628,0.15375 1.38379,0.46126 0.19328,0.19329 0.32148,1.10423 0.46126,1.38378 0.95983,1.91966 -0.0319,-0.4931 0.92252,0.46126 0.8024,0.8024 0.46126,2.9867 0.46126,4.15136 0,0.18993 0.1221,1.26168 0,1.38378 -1.33047,1.33047 -2.18094,-2.78886 -2.76757,-3.22883 -0.55008,-0.41256 -1.23003,-0.61501 -1.84504,-0.92252 z"
       id="path884" />
    <path
       style="fill:#ff0000;stroke:#000000;stroke-width:1px;stroke-linecap:butt;stroke-linejoin:miter;stroke-opacity:1;fill-opacity:1"
       d="m 54.428828,83.949548 c -0.556989,-2.413205 -6.326335,0.393969 -6.918919,-1.383784 -0.577798,-1.733393 2.106625,-4.351032 1.845045,-4.612613 -0.384385,-0.384384 -1.921922,0.384385 -2.306306,0 -0.25396,-0.253959 -1.928736,-3.522709 -1.383784,-4.612612 1.451081,-2.902163 4.143061,-0.914233 5.535135,-2.306306 0.21744,-0.217441 -0.137522,-0.64748 0,-0.922523 0.09724,-0.194485 0.364019,-0.266776 0.461261,-0.461261 0.291175,-0.582351 -0.442807,-2.324761 0,-2.767568 0.954366,-0.954366 -0.03731,1.458398 0.922523,-0.461261 0.137521,-0.275043 -0.137522,-0.647479 0,-0.922522 0.343963,-0.687928 1.031968,-1.141414 1.383783,-1.845045 0.636844,-1.273687 0.939503,-2.818509 1.383784,-4.151352 0.153754,-0.307507 0.307508,-0.615015 0.461261,-0.922522 0.153754,0 0.392501,0.137521 0.461262,0 1.997085,-3.99417 -2.370331,2.402342 0.461261,-1.845045 -0.04604,-0.913786 0.679416,-0.218155 0.922522,-0.461261 0.954366,-0.954366 -1.458397,0.03731 0.461262,-0.922523 1.095299,-0.54765 4.181457,3.823773 6.457657,2.306306 0.565113,-0.376742 0.213975,-1.147601 0.922523,-1.383783 1.506118,-0.50204 3.325547,-1.432144 5.073873,-2.306307 1.18069,-0.590345 4.37057,0 5.535135,0 0.680836,0 1.724396,-0.290955 2.306307,0 1.245638,0.622819 -0.23686,2.530708 0.461261,3.228829 0.313726,0.313726 7.83767,0.45749 7.841441,0.461261 0.156781,0.156781 0.156781,2.610787 0,2.767568 -0.230631,0.23063 -0.691892,0.23063 -0.922522,0.461261 -1.22674,1.226739 -2.956063,5.72363 -4.151352,6.918919 -0.326161,0.326161 -0.971219,-0.206282 -1.383783,0 -0.08993,0.04497 -0.361177,0.822437 -0.461262,0.922522 -0.954366,0.954366 0.03731,-1.458397 -0.922522,0.461262 -0.291176,0.58235 0.442807,2.32476 0,2.767567 -0.10872,0.10872 -0.352541,-0.10872 -0.461261,0 -0.283386,0.283386 -0.304731,1.074888 -0.922523,1.383784 -0.278497,0.139249 -1.170559,-0.213225 -1.383784,0 -0.686649,0.686649 -0.432875,1.816659 -1.383783,2.767567 -0.318701,0.318701 -4.957979,0.806627 -5.535135,1.383784 -0.327392,0.327392 -0.484223,0.726333 -0.922523,1.383784 -0.490919,0.736378 -1.280127,0.818865 -1.845045,1.383784 -0.153754,0.153753 -0.307507,1.23003 -0.461261,1.383783 -0.384385,0.384385 -1.921922,-0.384384 -2.306306,0 -0.108721,0.108721 0.10872,0.352541 0,0.461262 -0.260192,0.260191 -1.476412,-0.122878 -1.845045,0 -3.495304,1.165101 0.166558,-0.166559 -0.922523,0.922522 -0.461261,0.461261 -2.306306,-0.461261 -2.767567,0 -0.108721,0.10872 0.10872,0.352541 0,0.461261 -0.06455,0.06455 -3.345529,0.375121 -3.69009,0.461262 z"
       id="path890" />
    <path
       style="fill:#ff0000;stroke:#000000;stroke-width:1px;stroke-linecap:butt;stroke-linejoin:miter;stroke-opacity:1;fill-opacity:1"
       d="m 100.09369,87.639638 c -0.282333,2.553928 -6.276594,-0.181062 -5.073872,-1.383784 0.418898,-0.418898 1.845045,-0.916837 1.845045,-1.845045 0,-0.456133 -1.649348,-0.726825 -1.845045,-0.922523 -0.0935,-0.0935 -0.0935,-2.212807 0,-2.306306 0.0935,-0.0935 2.212807,-0.0935 2.306306,0 0.915533,0.915533 0.670885,1.383784 2.306306,1.383784 0.232874,0 1.98145,-1.708639 2.30631,-1.383784 0.50197,0.501972 0,3.785429 0,4.612613 0,0.307507 0.246,0.738018 0,0.922522 -0.55009,0.412565 -1.23003,0.615015 -1.84505,0.922523 z"
       id="path892" />
    <path
       style="fill:#ff0000;stroke:#000000;stroke-width:1px;stroke-linecap:butt;stroke-linejoin:miter;stroke-opacity:1;fill-opacity:1"
       d="m 94.097297,73.340541 c 0.307507,-1.845046 0.638099,-3.686392 0.922521,-5.535137 0.135631,-0.881609 -0.392365,-2.4441 0,-3.228829 0.380656,-0.761313 4.347064,-1.649332 5.073872,-0.922522 0.72057,0.720564 -0.469283,3.674043 0,4.612612 0.20628,0.412565 0.94619,-0.145864 1.38379,0 1.00486,-0.172407 0.15375,0.768769 0.46126,0.922523 0.88006,0.440032 0.88885,-0.528591 1.38378,0.461261 0.13752,0.275043 -0.21744,0.705082 0,0.922522 0.0461,0.04613 1.03015,0.353634 0.46126,0.922523 -0.61501,0.615015 -3.07507,-0.615015 -3.69009,0 -0.108719,0.10872 0.13752,0.3925 0,0.461261 -0.168946,0.08447 -1.651002,-0.194042 -1.845044,0 -0.10872,0.10872 0.108721,0.352541 0,0.461261 -0.34657,0.346571 -1.828568,-0.191095 -2.306306,0 -0.638427,0.255372 -1.230029,0.615017 -1.845043,0.922525 z"
       id="path894" />
    <path
       style="fill:#ff0000;stroke:#000000;stroke-width:1px;stroke-linecap:butt;stroke-linejoin:miter;stroke-opacity:1;fill-opacity:1"
       d="m 101.47748,121.77297 c 3.3744,-0.42688 1.73153,-1.27027 2.76756,-2.30631 0.35063,-0.35063 1.8224,-0.2193 2.30631,-0.46126 0.26355,-0.13177 0.93464,-1.37166 1.38378,-0.92252 0.36868,0.36868 0,2.68504 0,3.22883 0,0.45608 -0.73265,3.50022 -0.92252,3.69009 -0.10872,0.10872 -0.35254,-0.10872 -0.46126,0 -0.70407,0.70407 0.24113,4.57059 0,5.53513 -0.26407,1.0563 -0.92474,2.76979 -1.38378,3.22883 -0.39477,0.39477 -6.180216,-0.18381 -6.457662,-0.46126 -0.215697,-0.21569 -0.276412,-4.05979 0,-4.61261 0.09724,-0.19449 0.615015,-0.30751 0.461261,-0.46126 -0.922523,-0.92252 -4.612613,0.92252 -5.535135,0 -0.122099,-0.1221 0,-1.19385 0,-1.38379 0,-0.3075 -0.217441,-0.70508 0,-0.92252 0.977964,-0.97796 3.339056,-0.57149 3.69009,-0.92252 0.10872,-0.10872 -0.10872,-0.35254 0,-0.46126 0.153754,-0.15376 1.23003,-0.30751 1.383784,-0.46126 1.439932,-1.43994 0.286772,-0.44571 2.767572,-2.30631 z"
       id="path896" />
    <path
       style="fill:#ff0000;stroke:#000000;stroke-width:1px;stroke-linecap:butt;stroke-linejoin:miter;stroke-opacity:1;fill-opacity:1"
       d="m 78.875674,125.0018 c -6.766805,-3.14389 3.250065,-6.50013 0,0 z"
       id="path898" />
    <path
       style="fill:#ff0000;stroke:#000000;stroke-width:1px;stroke-linecap:butt;stroke-linejoin:miter;stroke-opacity:1;fill-opacity:1"
       d="m 74.724323,117.16036 c -6.947908,0.0123 -5.073874,0.74929 -5.073874,-4.61261 0,-0.51235 -0.326162,-2.90267 0,-3.22883 0.03998,-0.04 3.831237,0.14114 4.151351,0.46126 0.321971,0.32197 0.624678,6.1888 0.922523,7.38018 z"
       id="path904" />
    <path
       style="fill:#ff0000;stroke:#000000;stroke-width:1px;stroke-linecap:butt;stroke-linejoin:miter;stroke-opacity:1;fill-opacity:1"
       d="m 89.484683,205.26126 c -2.166089,0.68137 -1.623103,0.70058 -2.306307,1.38378 -0.153106,0.15311 -3.536983,0.15311 -3.69009,0 -0.550346,-0.55035 0.461262,-5.79955 0.461262,-6.45766 0,-0.92252 0,-1.84504 0,-2.76756 0,-0.15376 0.153753,-0.46127 0,-0.46127 -0.95983,0 -0.185598,0.64686 -0.461262,0.92253 -0.295004,0.295 -2.776055,0.91403 -3.228828,0.46126 -0.217441,-0.21744 0.21744,-0.70508 0,-0.92252 -0.108721,-0.10873 -0.352541,0.10872 -0.461262,0 -1.082926,-1.08293 -0.419891,-3.73146 0.461262,-4.61262 0.10872,-0.10872 0.461261,0.15376 0.461261,0 0,-0.15362 -2.893685,0.16757 -3.228829,0 -2.11884,-1.05942 -0.598597,-5.26046 0,-6.45765 0.686504,-1.37301 -0.734281,-8.02969 0,-8.76397 0.213225,-0.21322 1.105286,0.13925 1.383784,0 3.082541,-1.54127 1.785034,0.40125 3.228829,1.84505 0.10872,0.10872 0.352541,-0.10872 0.461261,0 0.217441,0.21744 -0.217441,0.70508 0,0.92252 0.768769,0.76877 3.843844,-0.76877 4.612612,0 0.461262,0.46126 0.461262,1.38378 0.922523,1.84504 0.23063,0.23063 1.153153,-0.23063 1.383784,0 0.307532,0.30754 -0.18147,1.94337 0,2.30631 0.06876,0.13752 0.352541,-0.10872 0.461261,0 0.23063,0.23063 0.23063,0.69189 0.461261,0.92252 0.624125,0.62413 8.138769,-0.62519 8.763964,0 0.10872,0.10872 -0.10872,0.35254 0,0.46126 0.243106,0.24311 0.679416,0.21816 0.922521,0.46127 0.59214,0.59213 1.47228,7.66445 0.92252,8.76396 -0.13752,0.27504 -0.70508,-0.21744 -0.92252,0 -0.217439,0.21744 0.21744,0.70508 0,0.92252 -0.108719,0.10872 -0.35254,-0.10872 -0.46126,0 -0.47603,0.47603 -0.670253,1.34051 -0.922522,1.84505 -0.417199,0.83439 -1.645364,0.98442 -1.845045,1.38378 -0.307508,0.61502 0.307507,1.69129 0,2.30631 -0.06876,0.13752 -0.352541,-0.10872 -0.461262,0 -0.153753,0.15375 -0.307507,1.23003 -0.461261,1.38378 -0.10872,0.10872 -0.32374,-0.0688 -0.461261,0 -0.635666,0.31783 -0.620519,1.08178 -0.922523,1.38378 -0.21744,0.21744 -0.705081,-0.21744 -0.922522,0 -0.10872,0.10872 0.10872,0.35254 0,0.46127 -0.488729,0.48872 -3.152581,0.46126 -4.151351,0.46126 z"
       id="path910" />
    <path
       style="fill:#ff0000;stroke:#000000;stroke-width:1px;stroke-linecap:butt;stroke-linejoin:miter;stroke-opacity:1;fill-opacity:1"
       d="m 113.62753,149.50523 c 0.50291,-1.61331 -1.76951,-2.34989 -2.00231,-3.74667 -0.24685,-1.48109 0.49894,-5.07388 2.30631,-5.07388 0.30751,0 0.70508,-0.21744 0.92252,0 0.10872,0.10872 -0.10872,0.35254 0,0.46126 0.15376,0.15376 1.23003,0.30751 1.38379,0.46126 0.34461,0.34462 0.68449,2.42532 2.76756,1.38379 0.13752,-0.0688 -0.0853,-0.33333 0,-0.46126 0.24123,-0.36185 0.57462,-0.6616 0.92253,-0.92253 0.93942,-0.70456 2.32016,-0.46819 3.22882,-0.92252 1.04158,-0.52079 1.76602,-1.80553 2.76757,-2.3063 1.25604,-0.62802 5.97576,1.37346 6.91892,1.84504 0.794,0.397 3.08568,-0.60441 3.69009,0 1.11645,1.11645 -1.28607,4.24907 -0.46126,5.07387 0.95436,0.95437 -0.0373,-1.45839 0.92252,0.46127 0.32924,0.65847 0.26099,3.36838 0,4.15135 -0.21806,0.65419 -1.11985,0.65859 -1.38378,0.92252 -0.10872,0.10872 0.13752,0.3925 0,0.46126 -0.27505,0.13752 -0.64748,-0.13752 -0.92252,0 -0.31685,0.15842 -0.52659,1.09805 -1.38379,1.38378 -0.18297,0.061 -6.40971,0.25461 -6.91892,0 -1.91966,-0.95983 0.49311,0.0318 -0.46126,-0.92252 -0.35702,-0.35702 -1.78839,-0.2023 -2.3063,-0.46126 -0.53732,-0.26866 -0.84648,-0.65387 -1.38379,-0.92252 -1.84142,-0.92071 -5.66179,0.64498 -8.6067,-0.86594 z"
       id="path912" />
    <path
       style="fill:#ff0000;stroke:#000000;stroke-width:1px;stroke-linecap:butt;stroke-linejoin:miter;stroke-opacity:1;fill-opacity:1"
       d="m 116.6991,188.65585 c 0.80899,0.44882 -0.58716,2.64168 0,3.22883 1.26541,1.26542 7.17402,3.79317 9.22522,2.76757 0.61779,-0.3089 0.63914,-1.1004 0.92252,-1.38379 0.51004,-0.51003 3.02238,-0.79512 3.69009,-0.46126 0.30751,0.15376 0.15376,0.76877 0.46127,0.92253 0.27955,0.13977 1.19049,0.26797 1.38378,0.46126 2.79213,2.79212 -1.22675,12.14982 1.38378,14.76036 0.10872,0.10872 0.35254,-0.10872 0.46126,0 0.23063,0.23063 -0.23063,1.15315 0,1.38378 0.30751,0.30751 1.07628,0.15375 1.38379,0.46126 0.31052,0.31053 0.24329,0.58291 0.92252,0.92252 0.59933,0.29967 1.97669,-0.72454 2.30631,-1.38378 0.22791,-0.45583 -1.20405,-0.74279 -1.38379,-0.92252 -0.16948,-0.16948 -0.16052,-1.24357 -0.46126,-1.84505 -0.44811,-0.89621 0,-5.58747 0,-6.91892 0,-0.46126 -0.32616,-1.05762 0,-1.38378 0.10872,-0.10872 0.35254,0.10872 0.46126,0 0.47023,-0.47022 -0.50791,-0.8992 0.46126,-1.38378 0.27505,-0.13753 0.70509,0.21744 0.92253,0 0.30239,-0.3024 0.23017,-1.61396 0.46126,-1.84505 0.38729,-0.3873 2.29571,-0.91193 2.3063,-0.92252 0.0907,-0.0907 0.64556,-2.12201 0.46127,-2.30631 -0.53186,-0.53185 -2.31764,-0.0226 -2.76757,-0.92252 -0.45083,-0.90166 -0.48471,-2.32976 -1.38379,-3.22883 -0.21744,-0.21744 -0.61501,0 -0.92252,0 -1.75553,0 -2.8983,-0.46126 -4.61261,-0.46126 -0.18993,0 -1.26169,-0.1221 -1.38378,0 -1.08909,1.08908 2.57278,-0.24258 -0.92253,0.92252 -1.76846,0.58949 -11.68116,-0.0374 -13.37657,-0.46126 z"
       id="path914" />
    <path
       style="fill:#ff0000;stroke:#000000;stroke-width:1px;stroke-linecap:butt;stroke-linejoin:miter;stroke-opacity:1;fill-opacity:1"
       d="m 169.76678,187.21639 c -2.94506,-2.56355 -6.5541,-1.78937 -10.17039,-1.78937 -0.76877,0 -1.9625,-0.6876 -2.3063,0 -0.27505,0.55009 0,1.23003 0,1.84505 0,5.37635 1.47504,2.95008 1.84504,3.69009 0.13752,0.27504 -0.13752,0.64748 0,0.92252 0.13752,0.27504 0.70508,-0.21744 0.92252,0 0.54681,0.5468 -0.59506,4.94007 0.46127,5.9964 0.3075,0.3075 1.07627,0.15375 1.38378,0.46126 0.28943,0.28943 0.10462,1.94966 0.46126,2.3063 1.02591,1.02592 5.84362,-1.1791 6.45766,-1.38378 0.30046,-0.10015 2.04803,0.25828 2.3063,0 0.76877,-0.76877 -1.69129,-0.46126 0.92253,-0.46126 0.63462,0 2.76517,0.22943 3.22883,0.46126 0.3075,0.15375 0.17519,0.73181 0.46126,0.92252 0.38447,0.25632 2.17249,-0.19364 2.3063,-0.46126 1.03801,-2.07601 0.92253,-8.41311 0.92253,-11.53153 0,-0.0356 0.10658,-2.25302 0,-2.30631 -0.68147,-0.34073 -2.71011,0.51873 -3.22883,0 -0.34401,-0.344 1.26975,-8.87799 0.46126,-9.68648 -0.38439,-0.38439 -1.92192,0.38438 -2.30631,0 -0.15375,-0.15376 0.30751,-0.30751 0.46126,-0.46126 0.003,-0.003 -0.19085,-1.57464 -0.46126,-1.84505 -0.47462,-0.47462 -1.31562,0.12046 -1.38378,0.46126 -0.12433,0.62163 -0.30751,1.23003 -0.46126,1.84505 -0.15376,0.61501 -0.26079,1.24363 -0.46126,1.84504 -0.52894,1.58682 -0.46127,2.88884 -0.46127,4.61262 0,0.45868 -0.73571,2.58075 -0.92252,2.76756 -0.10872,0.10872 -0.42465,-0.14933 -0.46126,0 -0.14201,0.57935 0.0151,1.19291 0.0226,1.78937 z"
       id="path918" />
    <path
       style="fill:#ffffff;fill-opacity:1;stroke:#000000;stroke-width:1px;stroke-linecap:butt;stroke-linejoin:miter;stroke-opacity:1"
       d="m 89.531185,167.64674 2.032711,-3.09853 1.304644,-1.63081 1.51549,-1.6308 2.052495,-2.00473 2.493973,-2.46599 2.839912,-1.97676 2.03272,-1.16954 4.53827,-2.1876 5.28613,-1.97675 4.89241,-0.97848 6.2762,-0.537 5.1708,0.21084 4.5185,0.37392 6.34036,1.48752 7.33862,2.95522 4.98794,2.65706 5.21858,3.75085 4.47891,4.54647 1.69836,2.53354 z"
       id="path901"
       sodipodi:nodetypes="ccccccccccccccccccccc" />
    <path
       style="fill:#000000;stroke:#000000;stroke-width:1px;stroke-linecap:butt;stroke-linejoin:miter;stroke-opacity:1;fill-opacity:1"
       d="m 164.54821,166.50517 -73.712381,-0.16308 -1.304644,1.30465 -1.304644,2.60928 -1.630805,3.26161 -0.978482,2.60929 -1.141564,3.26161 -0.16308,2.60929 0.326161,2.77237 1.304644,2.60928 2.772368,2.12005 3.098529,0.65232 73.712378,-0.16308 1.95697,-0.97848 2.28312,-1.79389 0.97849,-1.46772 0.65232,-1.95697 0.16308,-2.77236 -0.48924,-2.28313 -1.30465,-3.26161 -1.79388,-3.42469 -2.12005,-3.26161 z"
       id="path893" />
    <path
       style="fill:#000000;stroke:#000000;stroke-width:1px;stroke-linecap:butt;stroke-linejoin:miter;stroke-opacity:1;fill-opacity:1"
       d="m 62.731532,90.868469 5.073873,-5.996397 6.918919,-6.227027 8.533334,-3.920721 10.839639,-1.383783 6.227023,0.461261 1.38379,1.614414 -0.23063,1.153153 -1.15316,1.614415 -4.612608,-0.691892 -4.151352,0.230631 -4.612612,0.922522 -5.535135,1.614415 -5.535135,3.228828 -4.843244,4.612613 -4.612612,5.304504 -2.536937,-0.23063 z"
       id="path845" />
  </g>
</svg>
